{
	"asset":{
		"generator":"Khronos glTF Blender I/O v3.5.30",
		"version":"2.0"
	},
	"scene":0,
	"scenes":[
		{
			"name":"Scene",
			"nodes":[
				5,
				6,
				7
			]
		}
	],
	"nodes":[
		{
			"mesh":0,
			"name":"aim"
		},
		{
			"name":"bullet_spaw",
			"translation":[
				2.8780128955841064,
				0.298466295003891,
				0
			]
		},
		{
			"children":[
				1
			],
			"mesh":1,
			"name":"barrel"
		},
		{
			"name":"bullet_spaw.001",
			"translation":[
				1.5662000179290771,
				0.31729376316070557,
				0
			]
		},
		{
			"mesh":2,
			"name":"butt"
		},
		{
			"children":[
				0,
				2,
				3,
				4
			],
			"mesh":3,
			"name":"pistol"
		},
		{
			"mesh":4,
			"name":"pistol_fire",
			"translation":[
				0,
				2,
				0
			]
		},
		{
			"mesh":5,
			"name":"bullet",
			"translation":[
				0,
				4,
				0
			]
		}
	],
	"materials":[
		{
			"doubleSided":true,
			"name":"Material",
			"pbrMetallicRoughness":{
				"baseColorFactor":[
					0.800000011920929,
					0.800000011920929,
					0.800000011920929,
					1
				],
				"metallicFactor":0,
				"roughnessFactor":0.5
			}
		}
	],
	"meshes":[
		{
			"name":"aim",
			"primitives":[
				{
					"attributes":{
						"POSITION":0,
						"TEXCOORD_0":1,
						"NORMAL":2
					},
					"indices":3
				}
			]
		},
		{
			"name":"barrel",
			"primitives":[
				{
					"attributes":{
						"POSITION":4,
						"TEXCOORD_0":5,
						"NORMAL":6
					},
					"indices":7
				}
			]
		},
		{
			"name":"Cube.002",
			"primitives":[
				{
					"attributes":{
						"POSITION":8,
						"TEXCOORD_0":9,
						"NORMAL":10
					},
					"indices":11
				}
			]
		},
		{
			"name":"pistol",
			"primitives":[
				{
					"attributes":{
						"POSITION":12,
						"TEXCOORD_0":13,
						"NORMAL":14
					},
					"indices":15,
					"material":0
				}
			]
		},
		{
			"name":"Cube",
			"primitives":[
				{
					"attributes":{
						"POSITION":16,
						"TEXCOORD_0":17,
						"NORMAL":18
					},
					"indices":19
				}
			]
		},
		{
			"name":"Cube.001",
			"primitives":[
				{
					"attributes":{
						"POSITION":20,
						"TEXCOORD_0":21,
						"NORMAL":22
					},
					"indices":23
				}
			]
		}
	],
	"accessors":[
		{
			"bufferView":0,
			"componentType":5126,
			"count":20,
			"max":[
				0.6553869247436523,
				0.6189568042755127,
				0.089122474193573
			],
			"min":[
				-0.029613971710205078,
				0.3962736129760742,
				-0.08912248909473419
			],
			"type":"VEC3"
		},
		{
			"bufferView":1,
			"componentType":5126,
			"count":20,
			"type":"VEC2"
		},
		{
			"bufferView":2,
			"componentType":5126,
			"count":20,
			"type":"VEC3"
		},
		{
			"bufferView":3,
			"componentType":5123,
			"count":30,
			"type":"SCALAR"
		},
		{
			"bufferView":4,
			"componentType":5126,
			"count":136,
			"max":[
				2.7909135818481445,
				0.4187532961368561,
				0.10990576446056366
			],
			"min":[
				1.1650259494781494,
				-0.006092280149459839,
				-0.10990577936172485
			],
			"type":"VEC3"
		},
		{
			"bufferView":5,
			"componentType":5126,
			"count":136,
			"type":"VEC2"
		},
		{
			"bufferView":6,
			"componentType":5126,
			"count":136,
			"type":"VEC3"
		},
		{
			"bufferView":7,
			"componentType":5123,
			"count":252,
			"type":"SCALAR"
		},
		{
			"bufferView":8,
			"componentType":5126,
			"count":38,
			"max":[
				-0.010545134544372559,
				0.3467687964439392,
				0.10773248970508575
			],
			"min":[
				-1.2879934310913086,
				-0.11167818307876587,
				-0.10773248970508575
			],
			"type":"VEC3"
		},
		{
			"bufferView":9,
			"componentType":5126,
			"count":38,
			"type":"VEC2"
		},
		{
			"bufferView":10,
			"componentType":5126,
			"count":38,
			"type":"VEC3"
		},
		{
			"bufferView":11,
			"componentType":5123,
			"count":60,
			"type":"SCALAR"
		},
		{
			"bufferView":12,
			"componentType":5126,
			"count":159,
			"max":[
				1.5216381549835205,
				0.41742873191833496,
				0.10000002384185791
			],
			"min":[
				-0.1565871238708496,
				-0.1528298556804657,
				-0.10000002384185791
			],
			"type":"VEC3"
		},
		{
			"bufferView":13,
			"componentType":5126,
			"count":159,
			"type":"VEC2"
		},
		{
			"bufferView":14,
			"componentType":5126,
			"count":159,
			"type":"VEC3"
		},
		{
			"bufferView":15,
			"componentType":5123,
			"count":300,
			"type":"SCALAR"
		},
		{
			"bufferView":16,
			"componentType":5126,
			"count":72,
			"max":[
				0.20844992995262146,
				0.1414213925600052,
				0.1414213925600052
			],
			"min":[
				-0.10000001639127731,
				-0.1414213925600052,
				-0.1414213925600052
			],
			"type":"VEC3"
		},
		{
			"bufferView":17,
			"componentType":5126,
			"count":72,
			"type":"VEC2"
		},
		{
			"bufferView":18,
			"componentType":5126,
			"count":72,
			"type":"VEC3"
		},
		{
			"bufferView":19,
			"componentType":5123,
			"count":108,
			"type":"SCALAR"
		},
		{
			"bufferView":20,
			"componentType":5126,
			"count":96,
			"max":[
				0.17071068286895752,
				0.1707097291946411,
				0.17241179943084717
			],
			"min":[
				-0.17071068286895752,
				-0.17071163654327393,
				-0.17241179943084717
			],
			"type":"VEC3"
		},
		{
			"bufferView":21,
			"componentType":5126,
			"count":96,
			"type":"VEC2"
		},
		{
			"bufferView":22,
			"componentType":5126,
			"count":96,
			"type":"VEC3"
		},
		{
			"bufferView":23,
			"componentType":5123,
			"count":144,
			"type":"SCALAR"
		}
	],
	"bufferViews":[
		{
			"buffer":0,
			"byteLength":240,
			"byteOffset":0,
			"target":34962
		},
		{
			"buffer":0,
			"byteLength":160,
			"byteOffset":240,
			"target":34962
		},
		{
			"buffer":0,
			"byteLength":240,
			"byteOffset":400,
			"target":34962
		},
		{
			"buffer":0,
			"byteLength":60,
			"byteOffset":640,
			"target":34963
		},
		{
			"buffer":0,
			"byteLength":1632,
			"byteOffset":700,
			"target":34962
		},
		{
			"buffer":0,
			"byteLength":1088,
			"byteOffset":2332,
			"target":34962
		},
		{
			"buffer":0,
			"byteLength":1632,
			"byteOffset":3420,
			"target":34962
		},
		{
			"buffer":0,
			"byteLength":504,
			"byteOffset":5052,
			"target":34963
		},
		{
			"buffer":0,
			"byteLength":456,
			"byteOffset":5556,
			"target":34962
		},
		{
			"buffer":0,
			"byteLength":304,
			"byteOffset":6012,
			"target":34962
		},
		{
			"buffer":0,
			"byteLength":456,
			"byteOffset":6316,
			"target":34962
		},
		{
			"buffer":0,
			"byteLength":120,
			"byteOffset":6772,
			"target":34963
		},
		{
			"buffer":0,
			"byteLength":1908,
			"byteOffset":6892,
			"target":34962
		},
		{
			"buffer":0,
			"byteLength":1272,
			"byteOffset":8800,
			"target":34962
		},
		{
			"buffer":0,
			"byteLength":1908,
			"byteOffset":10072,
			"target":34962
		},
		{
			"buffer":0,
			"byteLength":600,
			"byteOffset":11980,
			"target":34963
		},
		{
			"buffer":0,
			"byteLength":864,
			"byteOffset":12580,
			"target":34962
		},
		{
			"buffer":0,
			"byteLength":576,
			"byteOffset":13444,
			"target":34962
		},
		{
			"buffer":0,
			"byteLength":864,
			"byteOffset":14020,
			"target":34962
		},
		{
			"buffer":0,
			"byteLength":216,
			"byteOffset":14884,
			"target":34963
		},
		{
			"buffer":0,
			"byteLength":1152,
			"byteOffset":15100,
			"target":34962
		},
		{
			"buffer":0,
			"byteLength":768,
			"byteOffset":16252,
			"target":34962
		},
		{
			"buffer":0,
			"byteLength":1152,
			"byteOffset":17020,
			"target":34962
		},
		{
			"buffer":0,
			"byteLength":288,
			"byteOffset":18172,
			"target":34963
		}
	],
	"buffers":[
		{
			"byteLength":18460,
			"uri":"data:application/octet-stream;base64,"
		}
	]
}
